<svg xmlns="http://www.w3.org/2000/svg" viewBox="0 0 48 48">
  <path d="M24 3C14.6 3 7 10.6 7 20c0 11.9 14.1 23.4 16 24.8a1.6 1.6 0 0 0 2 0C26.9 43.4 41 31.9 41 20 41 10.6 33.4 3 24 3Z" fill="#D3AC2B"/>
  <path d="M32.8 15.1c.9-.9 1.1-2.2.4-2.9-.7-.7-2-.5-2.9.4l-4 4-8.9-2.6a1 1 0 0 0-1 .3l-.9.9a1 1 0 0 0 .2 1.5l6.8 4.2-3.8 3.9-2.9-.4a.8.8 0 0 0-.7.2l-.6.7a.8.8 0 0 0 .2 1.3l3.4 1.9 1.9 3.4a.8.8 0 0 0 1.3.2l.6-.6a.8.8 0 0 0 .3-.8l-.4-2.9 3.9-3.8 4.2 6.8a1 1 0 0 0 1.5.2l.9-.9a1 1 0 0 0 .3-1l-2.6-8.9 3.9-4.1Z" fill="#181047"/>
</svg>
